# Tiled2Unity generated file. Do not modify by hand.
# Wavefront file for 'Jail_mesh_0004.obj'

# Vertices (Count = 28)
v -864 -64 0
v -896 -64 0
v -896 -32 0
v -864 -32 0
v -896 -64 0
v -928 -64 0
v -928 -32 0
v -896 -32 0
v -864 -96 0
v -896 -96 0
v -896 -64 0
v -864 -64 0
v -896 -96 0
v -928 -96 0
v -928 -64 0
v -896 -64 0
v -928 -128 0
v -960 -128 0
v -960 -96 0
v -928 -96 0
v -704 -160 0
v -736 -160 0
v -736 -128 0
v -704 -128 0
v -928 -160 0
v -960 -160 0
v -960 -128 0
v -928 -128 0

# Texture cooridinates (Count = 8)
vt 0.65625 0.34375
vt 0.6875 0.34375
vt 0.6875 0.375
vt 0.65625 0.375
vt 0.625 0.34375
vt 0.625 0.375
vt 0.71875 0.34375
vt 0.71875 0.375

# Normal
vn 0 0 -1

# Mesh description
g Jail_mesh_0004

# Faces
f 1/1/1 2/2/1 3/3/1 4/4/1
f 5/1/1 6/2/1 7/3/1 8/4/1
f 9/1/1 10/2/1 11/3/1 12/4/1
f 13/1/1 14/2/1 15/3/1 16/4/1
f 17/5/1 18/1/1 19/4/1 20/6/1
f 21/2/1 22/7/1 23/8/1 24/3/1
f 25/2/1 26/7/1 27/8/1 28/3/1

