# Tiled2Unity generated file. Do not modify by hand.
# Wavefront file for 'Jail_mesh_0005.obj'

# Vertices (Count = 28)
v -800 -32 0
v -832 -32 0
v -832 0 0
v -800 0 0
v -832 -32 0
v -864 -32 0
v -864 0 0
v -832 0 0
v -800 -64 0
v -832 -64 0
v -832 -32 0
v -800 -32 0
v -832 -64 0
v -864 -64 0
v -864 -32 0
v -832 -32 0
v -672 -96 0
v -704 -96 0
v -704 -64 0
v -672 -64 0
v -960 -96 0
v -992 -96 0
v -992 -64 0
v -960 -64 0
v -960 -128 0
v -992 -128 0
v -992 -96 0
v -960 -96 0

# Texture cooridinates (Count = 16)
vt 0.625 0.25
vt 0.65625 0.25
vt 0.65625 0.28125
vt 0.625 0.28125
vt 0.6875 0.28125
vt 0.71875 0.28125
vt 0.71875 0.3125
vt 0.6875 0.3125
vt 0.5 0.03125
vt 0.5 0.0625
vt 0.46875 0.0625
vt 0.46875 0.03125
vt 0.6875 0.34375
vt 0.71875 0.34375
vt 0.65625 0.3125
vt 0.625 0.3125

# Normal
vn 0 0 -1

# Mesh description
g Jail_mesh_0005

# Faces
f 1/1/1 2/2/1 3/3/1 4/4/1
f 5/5/1 6/6/1 7/7/1 8/8/1
f 9/9/1 10/10/1 11/11/1 12/12/1
f 13/9/1 14/10/1 15/11/1 16/12/1
f 17/13/1 18/8/1 19/7/1 20/14/1
f 21/3/1 22/15/1 23/16/1 24/4/1
f 25/5/1 26/8/1 27/15/1 28/3/1

