# Tiled2Unity generated file. Do not modify by hand.
# Wavefront file for 'Jail_mesh_0006.obj'

# Vertices (Count = 24)
v -864 -128 0
v -896 -128 0
v -896 -96 0
v -864 -96 0
v -896 -128 0
v -928 -128 0
v -928 -96 0
v -896 -96 0
v -928 -128 0
v -960 -128 0
v -960 -96 0
v -928 -96 0
v -864 -160 0
v -896 -160 0
v -896 -128 0
v -864 -128 0
v -896 -160 0
v -928 -160 0
v -928 -128 0
v -896 -128 0
v -928 -160 0
v -960 -160 0
v -960 -128 0
v -928 -128 0

# Texture cooridinates (Count = 12)
vt 0.1875 0.4285714
vt 0.1875 0.5
vt 0.25 0.5
vt 0.25 0.4285714
vt 0.1875 0.5714285
vt 0.25 0.5714285
vt 0.1875 0.6428571
vt 0.25 0.6428571
vt 0.125 0.4285714
vt 0.125 0.5
vt 0.125 0.5714285
vt 0.125 0.6428571

# Normal
vn 0 0 -1

# Mesh description
g Jail_mesh_0006

# Faces
f 1/1/1 2/2/1 3/3/1 4/4/1
f 5/2/1 6/5/1 7/6/1 8/3/1
f 9/5/1 10/7/1 11/8/1 12/6/1
f 13/9/1 14/10/1 15/2/1 16/1/1
f 17/10/1 18/11/1 19/5/1 20/2/1
f 21/11/1 22/12/1 23/7/1 24/5/1

