# Tiled2Unity generated file. Do not modify by hand.
# Wavefront file for 'Lobby_mesh_0003.obj'

# Vertices (Count = 20)
v -736 -224 0
v -768 -224 0
v -768 -192 0
v -736 -192 0
v -864 -224 0
v -896 -224 0
v -896 -192 0
v -864 -192 0
v -1120 -224 0
v -1152 -224 0
v -1152 -192 0
v -1120 -192 0
v -864 -288 0
v -896 -288 0
v -896 -256 0
v -864 -256 0
v -1120 -288 0
v -1152 -288 0
v -1152 -256 0
v -1120 -256 0

# Texture cooridinates (Count = 4)
vt 0.625 0.34375
vt 0.65625 0.34375
vt 0.65625 0.375
vt 0.625 0.375

# Normal
vn 0 0 -1

# Mesh description
g Lobby_mesh_0003

# Faces
f 1/1/1 2/2/1 3/3/1 4/4/1
f 5/1/1 6/2/1 7/3/1 8/4/1
f 9/1/1 10/2/1 11/3/1 12/4/1
f 13/1/1 14/2/1 15/3/1 16/4/1
f 17/1/1 18/2/1 19/3/1 20/4/1

