# Tiled2Unity generated file. Do not modify by hand.
# Wavefront file for 'Lobby_mesh_0002.obj'

# Vertices (Count = 44)
v -448 -64 0
v -480 -64 0
v -480 -32 0
v -448 -32 0
v -480 -64 0
v -512 -64 0
v -512 -32 0
v -480 -32 0
v -512 -64 0
v -544 -64 0
v -544 -32 0
v -512 -32 0
v -448 -96 0
v -480 -96 0
v -480 -64 0
v -448 -64 0
v -480 -96 0
v -512 -96 0
v -512 -64 0
v -480 -64 0
v -512 -96 0
v -544 -96 0
v -544 -64 0
v -512 -64 0
v -448 -128 0
v -480 -128 0
v -480 -96 0
v -448 -96 0
v -480 -128 0
v -512 -128 0
v -512 -96 0
v -480 -96 0
v -512 -128 0
v -544 -128 0
v -544 -96 0
v -512 -96 0
v -1152 -288 0
v -1184 -288 0
v -1184 -256 0
v -1152 -256 0
v -1152 -320 0
v -1184 -320 0
v -1184 -288 0
v -1152 -288 0

# Texture cooridinates (Count = 20)
vt 0.65625 0.0625
vt 0.6875 0.0625
vt 0.6875 0.09375
vt 0.65625 0.09375
vt 0.71875 0.0625
vt 0.71875 0.09375
vt 0.75 0.0625
vt 0.75 0.09375
vt 0.65625 0.03125
vt 0.6875 0.03125
vt 0.71875 0.03125
vt 0.75 0.03125
vt 0.65625 0
vt 0.6875 0
vt 0.71875 0
vt 0.75 0
vt 0.5625 0.09375
vt 0.59375 0.09375
vt 0.59375 0.125
vt 0.5625 0.125

# Normal
vn 0 0 -1

# Mesh description
g Lobby_mesh_0002

# Faces
f 1/1/1 2/2/1 3/3/1 4/4/1
f 5/2/1 6/5/1 7/6/1 8/3/1
f 9/5/1 10/7/1 11/8/1 12/6/1
f 13/9/1 14/10/1 15/2/1 16/1/1
f 17/10/1 18/11/1 19/5/1 20/2/1
f 21/11/1 22/12/1 23/7/1 24/5/1
f 25/13/1 26/14/1 27/10/1 28/9/1
f 29/14/1 30/15/1 31/11/1 32/10/1
f 33/15/1 34/16/1 35/12/1 36/11/1
f 37/17/1 38/18/1 39/19/1 40/20/1
f 41/17/1 42/18/1 43/19/1 44/20/1

