# Tiled2Unity generated file. Do not modify by hand.
# Wavefront file for 'Lobby_mesh_0005.obj'

# Vertices (Count = 48)
v -544 -32 0
v -576 -32 0
v -576 0 0
v -544 0 0
v -576 -32 0
v -608 -32 0
v -608 0 0
v -576 0 0
v -608 -32 0
v -640 -32 0
v -640 0 0
v -608 0 0
v -640 -32 0
v -672 -32 0
v -672 0 0
v -640 0 0
v -544 -64 0
v -576 -64 0
v -576 -32 0
v -544 -32 0
v -576 -64 0
v -608 -64 0
v -608 -32 0
v -576 -32 0
v -608 -64 0
v -640 -64 0
v -640 -32 0
v -608 -32 0
v -640 -64 0
v -672 -64 0
v -672 -32 0
v -640 -32 0
v -416 -256 0
v -448 -256 0
v -448 -224 0
v -416 -224 0
v -448 -256 0
v -480 -256 0
v -480 -224 0
v -448 -224 0
v -416 -352 0
v -448 -352 0
v -448 -320 0
v -416 -320 0
v -448 -352 0
v -480 -352 0
v -480 -320 0
v -448 -320 0

# Texture cooridinates (Count = 22)
vt 0.6875 0.7142857
vt 0.75 0.7142857
vt 0.75 0.7857143
vt 0.6875 0.7857143
vt 0.8125 0.7142857
vt 0.875 0.7142857
vt 0.875 0.7857143
vt 0.8125 0.7857143
vt 0.6875 0.5714285
vt 0.75 0.5714285
vt 0.75 0.6428571
vt 0.6875 0.6428571
vt 0.8125 0.5714285
vt 0.875 0.5714285
vt 0.875 0.6428571
vt 0.8125 0.6428571
vt 0.8125 0.5
vt 0.875 0.5
vt 0.8125 0.4285714
vt 0.8125 0.3571429
vt 0.875 0.3571429
vt 0.875 0.4285714

# Normal
vn 0 0 -1

# Mesh description
g Lobby_mesh_0005

# Faces
f 1/1/1 2/2/1 3/3/1 4/4/1
f 5/5/1 6/6/1 7/7/1 8/8/1
f 9/5/1 10/6/1 11/7/1 12/8/1
f 13/1/1 14/2/1 15/3/1 16/4/1
f 17/9/1 18/10/1 19/11/1 20/12/1
f 21/13/1 22/14/1 23/15/1 24/16/1
f 25/13/1 26/14/1 27/15/1 28/16/1
f 29/9/1 30/10/1 31/11/1 32/12/1
f 33/13/1 34/17/1 35/18/1 36/14/1
f 37/19/1 38/20/1 39/21/1 40/22/1
f 41/13/1 42/17/1 43/18/1 44/14/1
f 45/19/1 46/20/1 47/21/1 48/22/1

