# Tiled2Unity generated file. Do not modify by hand.
# Wavefront file for 'Lobby_mesh_0006.obj'

# Vertices (Count = 272)
v -768 -32 0
v -800 -32 0
v -800 0 0
v -768 0 0
v -832 -32 0
v -864 -32 0
v -864 0 0
v -832 0 0
v -1152 -32 0
v -1184 -32 0
v -1184 0 0
v -1152 0 0
v -416 -64 0
v -448 -64 0
v -448 -32 0
v -416 -32 0
v -448 -64 0
v -480 -64 0
v -480 -32 0
v -448 -32 0
v -480 -64 0
v -512 -64 0
v -512 -32 0
v -480 -32 0
v -768 -64 0
v -800 -64 0
v -800 -32 0
v -768 -32 0
v -800 -64 0
v -832 -64 0
v -832 -32 0
v -800 -32 0
v -832 -64 0
v -864 -64 0
v -864 -32 0
v -832 -32 0
v -1152 -64 0
v -1184 -64 0
v -1184 -32 0
v -1152 -32 0
v -416 -96 0
v -448 -96 0
v -448 -64 0
v -416 -64 0
v -448 -96 0
v -480 -96 0
v -480 -64 0
v -448 -64 0
v -480 -96 0
v -512 -96 0
v -512 -64 0
v -480 -64 0
v -512 -96 0
v -544 -96 0
v -544 -64 0
v -512 -64 0
v -1152 -96 0
v -1184 -96 0
v -1184 -64 0
v -1152 -64 0
v -416 -128 0
v -448 -128 0
v -448 -96 0
v -416 -96 0
v -448 -128 0
v -480 -128 0
v -480 -96 0
v -448 -96 0
v -480 -128 0
v -512 -128 0
v -512 -96 0
v -480 -96 0
v -480 -224 0
v -512 -224 0
v -512 -192 0
v -480 -192 0
v -608 -224 0
v -640 -224 0
v -640 -192 0
v -608 -192 0
v -736 -224 0
v -768 -224 0
v -768 -192 0
v -736 -192 0
v -864 -224 0
v -896 -224 0
v -896 -192 0
v -864 -192 0
v -992 -224 0
v -1024 -224 0
v -1024 -192 0
v -992 -192 0
v -1120 -224 0
v -1152 -224 0
v -1152 -192 0
v -1120 -192 0
v -480 -256 0
v -512 -256 0
v -512 -224 0
v -480 -224 0
v -608 -256 0
v -640 -256 0
v -640 -224 0
v -608 -224 0
v -736 -256 0
v -768 -256 0
v -768 -224 0
v -736 -224 0
v -864 -256 0
v -896 -256 0
v -896 -224 0
v -864 -224 0
v -992 -256 0
v -1024 -256 0
v -1024 -224 0
v -992 -224 0
v -1120 -256 0
v -1152 -256 0
v -1152 -224 0
v -1120 -224 0
v -448 -288 0
v -480 -288 0
v -480 -256 0
v -448 -256 0
v -480 -288 0
v -512 -288 0
v -512 -256 0
v -480 -256 0
v -608 -288 0
v -640 -288 0
v -640 -256 0
v -608 -256 0
v -736 -288 0
v -768 -288 0
v -768 -256 0
v -736 -256 0
v -864 -288 0
v -896 -288 0
v -896 -256 0
v -864 -256 0
v -992 -288 0
v -1024 -288 0
v -1024 -256 0
v -992 -256 0
v -1120 -288 0
v -1152 -288 0
v -1152 -256 0
v -1120 -256 0
v -448 -320 0
v -480 -320 0
v -480 -288 0
v -448 -288 0
v -512 -384 0
v -544 -384 0
v -544 -352 0
v -512 -352 0
v -544 -384 0
v -576 -384 0
v -576 -352 0
v -544 -352 0
v -576 -384 0
v -608 -384 0
v -608 -352 0
v -576 -352 0
v -768 -384 0
v -800 -384 0
v -800 -352 0
v -768 -352 0
v -800 -384 0
v -832 -384 0
v -832 -352 0
v -800 -352 0
v -832 -384 0
v -864 -384 0
v -864 -352 0
v -832 -352 0
v -1024 -384 0
v -1056 -384 0
v -1056 -352 0
v -1024 -352 0
v -1056 -384 0
v -1088 -384 0
v -1088 -352 0
v -1056 -352 0
v -1088 -384 0
v -1120 -384 0
v -1120 -352 0
v -1088 -352 0
v -608 -448 0
v -640 -448 0
v -640 -416 0
v -608 -416 0
v -640 -448 0
v -672 -448 0
v -672 -416 0
v -640 -416 0
v -672 -448 0
v -704 -448 0
v -704 -416 0
v -672 -416 0
v -704 -448 0
v -736 -448 0
v -736 -416 0
v -704 -416 0
v -896 -448 0
v -928 -448 0
v -928 -416 0
v -896 -416 0
v -928 -448 0
v -960 -448 0
v -960 -416 0
v -928 -416 0
v -960 -448 0
v -992 -448 0
v -992 -416 0
v -960 -416 0
v -992 -448 0
v -1024 -448 0
v -1024 -416 0
v -992 -416 0
v -448 -512 0
v -480 -512 0
v -480 -480 0
v -448 -480 0
v -480 -512 0
v -512 -512 0
v -512 -480 0
v -480 -480 0
v -768 -512 0
v -800 -512 0
v -800 -480 0
v -768 -480 0
v -832 -512 0
v -864 -512 0
v -864 -480 0
v -832 -480 0
v -1120 -512 0
v -1152 -512 0
v -1152 -480 0
v -1120 -480 0
v -1152 -512 0
v -1184 -512 0
v -1184 -480 0
v -1152 -480 0
v -448 -544 0
v -480 -544 0
v -480 -512 0
v -448 -512 0
v -480 -544 0
v -512 -544 0
v -512 -512 0
v -480 -512 0
v -768 -544 0
v -800 -544 0
v -800 -512 0
v -768 -512 0
v -800 -544 0
v -832 -544 0
v -832 -512 0
v -800 -512 0
v -832 -544 0
v -864 -544 0
v -864 -512 0
v -832 -512 0
v -1120 -544 0
v -1152 -544 0
v -1152 -512 0
v -1120 -512 0
v -1152 -544 0
v -1184 -544 0
v -1184 -512 0
v -1152 -512 0

# Texture cooridinates (Count = 69)
vt 0.59375 0.3125
vt 0.625 0.3125
vt 0.625 0.34375
vt 0.59375 0.34375
vt 0.5625 0.3125
vt 0.5625 0.34375
vt 0.59375 0.53125
vt 0.59375 0.5
vt 0.625 0.5
vt 0.625 0.53125
vt 0.59375 0.46875
vt 0.625 0.46875
vt 0.59375 0.4375
vt 0.625 0.4375
vt 0.59375 0.28125
vt 0.625 0.28125
vt 0.59375 0.125
vt 0.625 0.125
vt 0.625 0.15625
vt 0.59375 0.15625
vt 0.5625 0.28125
vt 0.5625 0.53125
vt 0.5625 0.5
vt 0.5625 0.46875
vt 0.5625 0.4375
vt 0.78125 0.53125
vt 0.8125 0.53125
vt 0.8125 0.5625
vt 0.78125 0.5625
vt 0.5625 0.25
vt 0.59375 0.25
vt 0.53125 0.53125
vt 0.53125 0.5
vt 0.53125 0.46875
vt 0.53125 0.4375
vt 0.71875 0.5625
vt 0.75 0.5625
vt 0.75 0.59375
vt 0.71875 0.59375
vt 0.75 0.53125
vt 0.625 0.09375
vt 0.65625 0.09375
vt 0.65625 0.125
vt 0.8125 0.59375
vt 0.78125 0.59375
vt 0.71875 0.53125
vt 0.90625 0.5625
vt 0.9375 0.5625
vt 0.9375 0.59375
vt 0.90625 0.59375
vt 0.96875 0.5625
vt 0.96875 0.59375
vt 1 0.5625
vt 1 0.59375
vt 0.59375 0.71875
vt 0.625 0.71875
vt 0.625 0.75
vt 0.59375 0.75
vt 0.65625 0.71875
vt 0.65625 0.75
vt 0.90625 0.71875
vt 0.9375 0.71875
vt 0.9375 0.75
vt 0.90625 0.75
vt 0.59375 0.6875
vt 0.625 0.6875
vt 0.65625 0.6875
vt 0.90625 0.6875
vt 0.9375 0.6875

# Normal
vn 0 0 -1

# Mesh description
g Lobby_mesh_0006

# Faces
f 1/1/1 2/2/1 3/3/1 4/4/1
f 5/1/1 6/2/1 7/3/1 8/4/1
f 9/5/1 10/1/1 11/4/1 12/6/1
f 13/7/1 14/8/1 15/9/1 16/10/1
f 17/8/1 18/11/1 19/12/1 20/9/1
f 21/11/1 22/13/1 23/14/1 24/12/1
f 25/15/1 26/16/1 27/2/1 28/1/1
f 29/17/1 30/18/1 31/19/1 32/20/1
f 33/15/1 34/16/1 35/2/1 36/1/1
f 37/21/1 38/15/1 39/1/1 40/5/1
f 41/22/1 42/23/1 43/8/1 44/7/1
f 45/23/1 46/24/1 47/11/1 48/8/1
f 49/24/1 50/25/1 51/13/1 52/11/1
f 53/26/1 54/27/1 55/28/1 56/29/1
f 57/30/1 58/31/1 59/15/1 60/21/1
f 61/32/1 62/33/1 63/23/1 64/22/1
f 65/33/1 66/34/1 67/24/1 68/23/1
f 69/34/1 70/35/1 71/25/1 72/24/1
f 73/36/1 74/37/1 75/38/1 76/39/1
f 77/36/1 78/37/1 79/38/1 80/39/1
f 81/36/1 82/37/1 83/38/1 84/39/1
f 85/36/1 86/37/1 87/38/1 88/39/1
f 89/36/1 90/37/1 91/38/1 92/39/1
f 93/36/1 94/37/1 95/38/1 96/39/1
f 97/40/1 98/26/1 99/29/1 100/37/1
f 101/40/1 102/26/1 103/29/1 104/37/1
f 105/40/1 106/26/1 107/29/1 108/37/1
f 109/40/1 110/26/1 111/29/1 112/37/1
f 113/40/1 114/26/1 115/29/1 116/37/1
f 117/40/1 118/26/1 119/29/1 120/37/1
f 121/41/1 122/42/1 123/43/1 124/18/1
f 125/29/1 126/28/1 127/44/1 128/45/1
f 129/29/1 130/28/1 131/44/1 132/45/1
f 133/29/1 134/28/1 135/44/1 136/45/1
f 137/29/1 138/28/1 139/44/1 140/45/1
f 141/29/1 142/28/1 143/44/1 144/45/1
f 145/29/1 146/28/1 147/44/1 148/45/1
f 149/41/1 150/42/1 151/43/1 152/18/1
f 153/46/1 154/40/1 155/37/1 156/36/1
f 157/40/1 158/26/1 159/29/1 160/37/1
f 161/26/1 162/27/1 163/28/1 164/29/1
f 165/46/1 166/40/1 167/37/1 168/36/1
f 169/40/1 170/26/1 171/29/1 172/37/1
f 173/26/1 174/27/1 175/28/1 176/29/1
f 177/46/1 178/40/1 179/37/1 180/36/1
f 181/40/1 182/26/1 183/29/1 184/37/1
f 185/26/1 186/27/1 187/28/1 188/29/1
f 189/47/1 190/48/1 191/49/1 192/50/1
f 193/48/1 194/51/1 195/52/1 196/49/1
f 197/48/1 198/51/1 199/52/1 200/49/1
f 201/51/1 202/53/1 203/54/1 204/52/1
f 205/47/1 206/48/1 207/49/1 208/50/1
f 209/48/1 210/51/1 211/52/1 212/49/1
f 213/48/1 214/51/1 215/52/1 216/49/1
f 217/51/1 218/53/1 219/54/1 220/52/1
f 221/55/1 222/56/1 223/57/1 224/58/1
f 225/56/1 226/59/1 227/60/1 228/57/1
f 229/61/1 230/62/1 231/63/1 232/64/1
f 233/61/1 234/62/1 235/63/1 236/64/1
f 237/55/1 238/56/1 239/57/1 240/58/1
f 241/56/1 242/59/1 243/60/1 244/57/1
f 245/65/1 246/66/1 247/56/1 248/55/1
f 249/66/1 250/67/1 251/59/1 252/56/1
f 253/68/1 254/69/1 255/62/1 256/61/1
f 257/17/1 258/18/1 259/19/1 260/20/1
f 261/68/1 262/69/1 263/62/1 264/61/1
f 265/65/1 266/66/1 267/56/1 268/55/1
f 269/66/1 270/67/1 271/59/1 272/56/1

